<svg id="Group_5719" data-name="Group 5719" xmlns="http://www.w3.org/2000/svg" xmlns:xlink="http://www.w3.org/1999/xlink" width="47.234" height="47.234" viewBox="0 0 47.234 47.234">
  <defs>
    <clipPath id="clip-path">
      <rect id="Rectangle_56" data-name="Rectangle 56" width="47.234" height="47.234" fill="none"/>
    </clipPath>
  </defs>
  <g id="Group_5711" data-name="Group 5711" transform="translate(0 0)" clip-path="url(#clip-path)">
    <path id="Path_759" data-name="Path 759" d="M47.234,23.617A23.617,23.617,0,1,1,23.617,0,23.617,23.617,0,0,1,47.234,23.617" transform="translate(0 0)" fill="#d70025"/>
    <path id="Path_760" data-name="Path 760" d="M36.295,33.316h0V28.068h0V25.444h0V17.572h0V14.651h2.18a.234.234,0,0,0,.166-.069.23.23,0,0,0,.068-.165.234.234,0,0,0-.234-.234H33.638V9.666H35.7a.234.234,0,0,0,0-.467H28.478a.234.234,0,0,0,0,.468h2.067v4.516H25.707a.234.234,0,0,0,0,.468h2.182v21.2a1.734,1.734,0,0,0,1.734,1.734h.691v2.721a.235.235,0,0,0,.234.234h1.311V46.57a.234.234,0,0,0,.4.166.238.238,0,0,0,.069-.166V40.54h1.309a.234.234,0,0,0,.166-.069.23.23,0,0,0,.068-.165V37.585h.691a1.733,1.733,0,0,0,1.734-1.734ZM31.012,9.667H33.17v4.517H31.012ZM33.4,40.073H30.78V37.585H33.4Zm2.055-3.326a1.257,1.257,0,0,1-.9.371H29.622a1.267,1.267,0,0,1-1.267-1.266v-21.2h7.472v2.686H34.355a.234.234,0,1,0,0,.467h1.472v2.158H33.3a.234.234,0,1,0,0,.467h2.531v2.156H34.355a.234.234,0,1,0,0,.468h1.472v2.157H33.3a.234.234,0,1,0,0,.468h2.531v2.157H34.355a.234.234,0,1,0,0,.467h1.472v2.156H33.3a.234.234,0,1,0,0,.467h2.531v2.157H34.355a.234.234,0,1,0,0,.468h1.472v2.3a1.259,1.259,0,0,1-.371.9" transform="translate(-8.474 -3.06)" fill="#fff"/>
    <path id="Path_761" data-name="Path 761" d="M36.295,33.316h0V28.068h0V25.444h0V17.572h0V14.651h2.18a.234.234,0,0,0,.166-.069.23.23,0,0,0,.068-.165.234.234,0,0,0-.234-.234H33.638V9.666H35.7a.234.234,0,0,0,0-.467H28.478a.234.234,0,0,0,0,.468h2.067v4.516H25.707a.234.234,0,0,0,0,.468h2.182v21.2a1.734,1.734,0,0,0,1.734,1.734h.691v2.721a.235.235,0,0,0,.234.234h1.311V46.57a.234.234,0,0,0,.4.166.238.238,0,0,0,.069-.166V40.54h1.309a.234.234,0,0,0,.166-.069.23.23,0,0,0,.068-.165V37.585h.691a1.733,1.733,0,0,0,1.734-1.734ZM31.012,9.667H33.17v4.517H31.012ZM33.4,40.073H30.78V37.585H33.4Zm2.055-3.326a1.257,1.257,0,0,1-.9.371H29.622a1.267,1.267,0,0,1-1.267-1.266v-21.2h7.472v2.686H34.355a.234.234,0,1,0,0,.467h1.472v2.158H33.3a.234.234,0,1,0,0,.467h2.531v2.156H34.355a.234.234,0,1,0,0,.468h1.472v2.157H33.3a.234.234,0,1,0,0,.468h2.531v2.157H34.355a.234.234,0,1,0,0,.467h1.472v2.156H33.3a.234.234,0,1,0,0,.467h2.531v2.157H34.355a.234.234,0,1,0,0,.468h1.472v2.3A1.259,1.259,0,0,1,35.456,36.746Z" transform="translate(-8.474 -3.06)" fill="none" stroke="#fff" stroke-miterlimit="10" stroke-width="0.9"/>
  </g>
</svg>
