<svg id="Group_5720" data-name="Group 5720" xmlns="http://www.w3.org/2000/svg" xmlns:xlink="http://www.w3.org/1999/xlink" width="47.234" height="47.234" viewBox="0 0 47.234 47.234">
  <defs>
    <clipPath id="clip-path">
      <rect id="Rectangle_57" data-name="Rectangle 57" width="47.234" height="47.234" fill="none"/>
    </clipPath>
  </defs>
  <g id="Group_5713" data-name="Group 5713" transform="translate(0 0)" clip-path="url(#clip-path)">
    <path id="Path_762" data-name="Path 762" d="M47.234,23.617A23.617,23.617,0,1,1,23.617,0,23.617,23.617,0,0,1,47.234,23.617" transform="translate(0 0)" fill="#d70025"/>
    <path id="Path_763" data-name="Path 763" d="M42.877,15.309a.482.482,0,0,1,.478.5V38.072a.5.5,0,0,1-.336.469L32.678,42.084a.5.5,0,0,1-.325,0L22.426,38.6,12.248,42.084a.5.5,0,0,1-.657-.47V19.35a.5.5,0,0,1,.335-.469l10.342-3.542a.491.491,0,0,1,.324,0l9.927,3.485L42.7,15.339a.61.61,0,0,1,.179-.03M42.362,16.5l-9.348,3.2V40.92l9.348-3.2Zm-2.6,14.247a.5.5,0,0,1,.537.326.5.5,0,0,1-.3.633L35.71,33.227a.5.5,0,0,1-.331-.936l4.288-1.518Zm0-3.289a.5.5,0,0,1,.537.327.5.5,0,0,1-.3.633L35.71,29.938A.5.5,0,0,1,35.379,29l4.288-1.518Zm0-3.289a.505.505,0,0,1,.537.326.5.5,0,0,1-.3.633L35.71,26.649a.5.5,0,0,1-.331-.936L39.666,24.2ZM21.932,16.5l-9.349,3.2V40.92l9.349-3.2Zm-2.6,11.211a.5.5,0,0,1,.536.326.5.5,0,0,1-.3.633l-4.287,1.518a.5.5,0,0,1-.331-.936l4.288-1.518Zm0-3.289a.5.5,0,0,1,.536.326.5.5,0,0,1-.3.634L15.279,26.9a.5.5,0,0,1-.331-.936l4.288-1.518Zm0-3.289a.5.5,0,0,1,.536.326.5.5,0,0,1-.3.633l-4.287,1.518a.5.5,0,0,1-.331-.936l4.288-1.518Zm3.592-4.627V37.72l9.1,3.194V19.7Zm2.607,17.531.1.026,4.035,1.518a.5.5,0,1,1-.348.929L25.28,34.994a.5.5,0,0,1,.06-.947,1.023,1.023,0,0,1,.192-.008m0-3.289.1.026L29.665,32.3a.5.5,0,1,1-.348.929L25.28,31.706a.5.5,0,0,1-.29-.639.5.5,0,0,1,.35-.308,1.023,1.023,0,0,1,.192-.007m-.071-9.873a.475.475,0,0,1,.168.033l4.035,1.518a.5.5,0,0,1,.322.464V29.47a.5.5,0,0,1-.67.464L25.28,28.417a.5.5,0,0,1-.322-.465V21.375a.483.483,0,0,1,.488-.5Zm.491,1.214v5.518l3.042,1.145V23.236Z" transform="translate(-3.856 -5.093)" fill="#fff"/>
    <path id="Path_764" data-name="Path 764" d="M42.877,15.309a.482.482,0,0,1,.478.5V38.072a.5.5,0,0,1-.336.469L32.678,42.084a.5.5,0,0,1-.325,0L22.426,38.6,12.248,42.084a.5.5,0,0,1-.657-.47V19.35a.5.5,0,0,1,.335-.469l10.342-3.542a.491.491,0,0,1,.324,0l9.927,3.485L42.7,15.339A.61.61,0,0,1,42.877,15.309ZM42.362,16.5l-9.348,3.2V40.92l9.348-3.2Zm-2.6,14.247a.5.5,0,0,1,.537.326.5.5,0,0,1-.3.633L35.71,33.227a.5.5,0,0,1-.331-.936l4.288-1.518Zm0-3.289a.5.5,0,0,1,.537.327.5.5,0,0,1-.3.633L35.71,29.938A.5.5,0,0,1,35.379,29l4.288-1.518Zm0-3.289a.505.505,0,0,1,.537.326.5.5,0,0,1-.3.633L35.71,26.649a.5.5,0,0,1-.331-.936L39.666,24.2ZM21.932,16.5l-9.349,3.2V40.92l9.349-3.2Zm-2.6,11.211a.5.5,0,0,1,.536.326.5.5,0,0,1-.3.633l-4.287,1.518a.5.5,0,0,1-.331-.936l4.288-1.518Zm0-3.289a.5.5,0,0,1,.536.326.5.5,0,0,1-.3.634L15.279,26.9a.5.5,0,0,1-.331-.936l4.288-1.518Zm0-3.289a.5.5,0,0,1,.536.326.5.5,0,0,1-.3.633l-4.287,1.518a.5.5,0,0,1-.331-.936l4.288-1.518Zm3.592-4.627V37.72l9.1,3.194V19.7Zm2.607,17.531.1.026,4.035,1.518a.5.5,0,1,1-.348.929L25.28,34.994a.5.5,0,0,1,.06-.947A1.023,1.023,0,0,1,25.533,34.039Zm0-3.289.1.026L29.665,32.3a.5.5,0,1,1-.348.929L25.28,31.706a.5.5,0,0,1-.29-.639.5.5,0,0,1,.35-.308A1.023,1.023,0,0,1,25.533,30.751Zm-.071-9.873a.475.475,0,0,1,.168.033l4.035,1.518a.5.5,0,0,1,.322.464V29.47a.5.5,0,0,1-.67.464L25.28,28.417a.5.5,0,0,1-.322-.465V21.375a.483.483,0,0,1,.488-.5Zm.491,1.214v5.518l3.042,1.145V23.236Z" transform="translate(-3.856 -5.093)" fill="none" stroke="#fff" stroke-miterlimit="10" stroke-width="0.212"/>
  </g>
</svg>
