<svg id="Component_1_46" data-name="Component 1 – 46" xmlns="http://www.w3.org/2000/svg" width="234.389" height="74.972" viewBox="0 0 234.389 74.972">
  <g id="Group_1" data-name="Group 1" transform="translate(7.708)">
    <path id="Path_1" data-name="Path 1" d="M22.68-156.085A16.159,16.159,0,0,1,6.312-172.224a16.386,16.386,0,0,1,16.464-16.418,16.35,16.35,0,0,1,16.287,16.274A16.341,16.341,0,0,1,22.68-156.085m.055-28.133c-6.869,0-11.671,5.357-11.671,12.09A11.636,11.636,0,0,0,22.68-160.552a11.664,11.664,0,0,0,11.631-11.817A11.569,11.569,0,0,0,22.735-184.218Z" transform="translate(-6.312 200.588)" fill="#d60024"/>
    <path id="Path_2" data-name="Path 2" d="M58.336-158.807v-11c0-2.213-.1-5.226-3.063-5.226-3.335,0-3.623,3.48-3.623,6.02v10.207H47.09v-10.912c0-2.11-.233-5.315-3.058-5.315a3.411,3.411,0,0,0-3.012,1.841,10.446,10.446,0,0,0-.657,4.179v10.207H35.748v-19.8h4.615v1.835c1.459-1.6,2.535-2.349,4.748-2.349a6.174,6.174,0,0,1,5.273,2.917,6.989,6.989,0,0,1,5.834-2.917,6.391,6.391,0,0,1,5.739,3.1,11.334,11.334,0,0,1,.946,4.986v12.227H58.336" transform="translate(0.196 202.693)" fill="#d60024"/>
    <path id="Path_3" data-name="Path 3" d="M73.61-158.807v-11.049c0-2.774-.238-5.179-3.671-5.179-4.048,0-4.187,3.578-4.187,6.683v9.544H61.139v-19.8h4.613v1.835a6.617,6.617,0,0,1,5.407-2.349,7.091,7.091,0,0,1,5.793,2.68c1.13,1.6,1.227,3.623,1.227,5.5v12.138H73.61" transform="translate(5.811 202.693)" fill="#d60024"/>
    <path id="Path_4" data-name="Path 4" d="M80.918-181.86a2.993,2.993,0,0,1-2.965-3.01,2.948,2.948,0,0,1,2.965-2.958,2.952,2.952,0,0,1,2.966,2.958,3,3,0,0,1-2.966,3.01M78.61-156.883v-19.8h4.615v19.8Z" transform="translate(9.528 200.768)" fill="#d60024"/>
    <path id="Path_5" data-name="Path 5" d="M92.351-173.109v15.521H87.741v-15.521H85.816v-4.281h1.925v-7.248h4.611v7.248h3.534v4.281H92.351" transform="translate(11.267 201.473)" fill="#d60024"/>
    <path id="Path_6" data-name="Path 6" d="M107.579-173.766a3.85,3.85,0,0,0-2.539-.939c-3.248,0-3.721,3.055-3.721,5.651v10.246H96.71v-19.8h4.61v1.785c1.369-1.5,2.451-2.3,4.567-2.3a6.251,6.251,0,0,1,3.767,1.172l-2.075,4.185" transform="translate(13.676 202.693)" fill="#d60024"/>
    <path id="Path_7" data-name="Path 7" d="M117.845-158.19a10.432,10.432,0,0,1-10.585-10.5,10.388,10.388,0,0,1,10.585-10.438,10.345,10.345,0,0,1,10.534,10.438,10.418,10.418,0,0,1-10.534,10.5m0-16.845c-3.768,0-5.883,2.774-5.883,6.4s2.115,6.309,5.883,6.309c3.717,0,5.885-2.734,5.885-6.309S121.609-175.035,117.845-175.035Z" transform="translate(16.008 202.693)" fill="#d60024"/>
    <path id="Path_8" data-name="Path 8" d="M137.255-158.19a7.957,7.957,0,0,1-6.209-2.826v12.982h-4.612v-30.575h4.612v2.166a8.181,8.181,0,0,1,6.114-2.68c5.883,0,9.411,5.033,9.411,10.536,0,5.411-3.573,10.4-9.316,10.4m-.888-16.845c-3.629,0-5.6,2.967-5.6,6.35s1.975,6.357,5.6,6.357c3.52,0,5.506-3.109,5.506-6.357S139.888-175.035,136.368-175.035Z" transform="translate(20.248 202.693)" fill="#d60024"/>
    <path id="Path_9" data-name="Path 9" d="M160.884-160.644a10.305,10.305,0,0,1-6.7,2.379c-6.217,0-9.731-4.533-9.731-10.525,0-5.8,3.465-10.293,9.551-10.293,6.266,0,9.3,4.5,9.3,10.389v1.076H149.231c.184,2.942,2.012,5.239,5.148,5.239,2.666,0,4.021-1.685,5.284-3.789l3.839,2.15a13.27,13.27,0,0,1-2.618,3.374m-6.836-14.361a4.615,4.615,0,0,0-4.539,3.645h9.125A4.487,4.487,0,0,0,154.048-175.006Z" transform="translate(24.232 202.702)" fill="#d60024"/>
    <path id="Path_10" data-name="Path 10" d="M196.386-178.429a33.687,33.687,0,0,0-11.294,2.385,40.55,40.55,0,0,0-9.381,5.328,44.8,44.8,0,0,0-7.439,7.086v.007a35.608,35.608,0,0,1,6.99-3.492,60.655,60.655,0,0,1,21.794-3.623,19.446,19.446,0,0,0,.127-2.213,18.929,18.929,0,0,0-.8-5.478" transform="translate(29.498 202.846)" fill="#d60024"/>
    <path id="Path_11" data-name="Path 11" d="M169.607-173.17A27.757,27.757,0,0,1,178.2-181.8a25.731,25.731,0,0,1,12.38-3.8c-.823-.992-2.27-2.511-3.238-3.441-4.447-4.29-9.829-8.184-14.739-9.378a6.484,6.484,0,0,1,3.207,5.86c.07,2.188-1.321,5.621-3.36,7.969,0,0-6.931,7.725-6.11,17.752a36.708,36.708,0,0,1,3.27-6.327" transform="translate(29.056 198.425)" fill="#d60024"/>
    <path id="Path_12" data-name="Path 12" d="M176.064-166.562a33.409,33.409,0,0,0-6.563,3.253,15.019,15.019,0,0,0,11.726,5.842c7.139,0,13.157-5.274,15.061-12.489a57.79,57.79,0,0,0-20.224,3.395" transform="translate(29.77 204.719)" fill="#d60024"/>
    <path id="Path_13" data-name="Path 13" d="M192.369-185.747a23.618,23.618,0,0,0-12.913,3.406,25.124,25.124,0,0,0-7.749,7.77,35.981,35.981,0,0,0-4.439,9.97h0a48.547,48.547,0,0,1,7.02-6.517,39.531,39.531,0,0,1,21.451-8.257,30.735,30.735,0,0,0-3.37-6.372m-23.24,18.126s4.884-17.249,22.844-17.249a38.249,38.249,0,0,1,2.622,4.9S181.367-180,169.129-167.621Z" transform="translate(29.276 201.228)" fill="#d60024"/>
  </g>
  <g id="Group_2" data-name="Group 2" transform="translate(8.157 58.418)">
    <path id="Path_14" data-name="Path 14" d="M10.423-138.061a3.712,3.712,0,0,1-3.743-3.12l1.311-.364a2.476,2.476,0,0,0,2.469,2.213,2.387,2.387,0,0,0,2.434-2.392c0-2.855-5.593-2.177-5.593-5.74a3.208,3.208,0,0,1,3.4-3.12,3.417,3.417,0,0,1,3.12,1.889l-1.075.706a2.214,2.214,0,0,0-2.067-1.329,1.919,1.919,0,0,0-2.011,1.854c0,2.5,5.584,1.782,5.584,5.681a3.726,3.726,0,0,1-3.827,3.723" transform="translate(-6.68 150.585)" fill="#d60024"/>
    <path id="Path_15" data-name="Path 15" d="M18.228-138.893a3.942,3.942,0,0,1-3.992-3.956,3.966,3.966,0,0,1,3.992-3.976,3.934,3.934,0,0,1,3.978,3.976,3.933,3.933,0,0,1-3.978,3.956m-.016-6.749a2.641,2.641,0,0,0-2.65,2.793,2.638,2.638,0,0,0,2.65,2.78,2.632,2.632,0,0,0,2.667-2.78A2.625,2.625,0,0,0,18.212-145.642Z" transform="translate(-5.009 151.416)" fill="#d60024"/>
    <path id="Path_16" data-name="Path 16" d="M30.972-139.113v-4.569c0-.968-.167-1.984-1.363-1.984-1.362,0-1.614,1.274-1.614,2.364v4.19H26.706v-4.459c0-.946-.2-2.094-1.382-2.094a1.554,1.554,0,0,0-1.358.821l-.293,1.631v4.1H22.388v-7.534h1.285v.8a2.172,2.172,0,0,1,1.871-.981,2.3,2.3,0,0,1,2.07,1.219,2.421,2.421,0,0,1,2.2-1.219,2.447,2.447,0,0,1,2.034,1.016,3.579,3.579,0,0,1,.416,1.924v4.772H30.972" transform="translate(-3.207 151.416)" fill="#d60024"/>
    <path id="Path_17" data-name="Path 17" d="M38.339-139.113v-1.051a3.209,3.209,0,0,1-2.613,1.271,3.732,3.732,0,0,1-3.634-4.011,3.662,3.662,0,0,1,3.611-3.921,3.22,3.22,0,0,1,2.636,1.257v-1.078h1.287v7.534H38.339m-2.432-6.554a2.571,2.571,0,0,0-2.487,2.762,2.6,2.6,0,0,0,2.487,2.835,2.579,2.579,0,0,0,2.511-2.835A2.547,2.547,0,0,0,35.907-145.666Z" transform="translate(-1.061 151.416)" fill="#d60024"/>
    <path id="Path_18" data-name="Path 18" d="M41.734-144.984v6.332h-1.3v-6.332h-.782v-1.2h.782v-2.719h1.3v2.719H43.06v1.2H41.734" transform="translate(0.609 150.956)" fill="#d60024"/>
    <path id="Path_19" data-name="Path 19" d="M47.01-145.336l-.763-.258-.653.169c-.832.454-.832,1.525-.832,2.345v3.969H43.47v-7.534h1.292v.821a2.033,2.033,0,0,1,1.7-1l1.159.31-.615,1.178" transform="translate(1.455 151.416)" fill="#d60024"/>
    <path id="Path_20" data-name="Path 20" d="M51.226-138.893a3.943,3.943,0,0,1-4-3.956,3.967,3.967,0,0,1,4-3.976,3.93,3.93,0,0,1,3.976,3.976,3.936,3.936,0,0,1-3.976,3.956m-.02-6.749a2.641,2.641,0,0,0-2.649,2.793,2.635,2.635,0,0,0,2.649,2.78,2.635,2.635,0,0,0,2.666-2.78A2.624,2.624,0,0,0,51.207-145.642Z" transform="translate(2.286 151.416)" fill="#d60024"/>
    <path id="Path_21" data-name="Path 21" d="M59.3-138.893a3.249,3.249,0,0,1-2.631-1.271v5.3H55.379v-11.785H56.67v1.053a3.265,3.265,0,0,1,2.612-1.231,3.732,3.732,0,0,1,3.63,3.994,3.69,3.69,0,0,1-3.611,3.938m-.2-6.773a2.6,2.6,0,0,0-2.5,2.835,2.568,2.568,0,0,0,2.525,2.762,2.579,2.579,0,0,0,2.463-2.762A2.6,2.6,0,0,0,59.1-145.666Z" transform="translate(4.088 151.416)" fill="#d60024"/>
    <path id="Path_22" data-name="Path 22" d="M63.868-147.921l-.919-.921.919-.924.932.924-.932.921m-.65,9.459V-146h1.288v7.534Z" transform="translate(5.761 150.766)" fill="#d60024"/>
    <path id="Path_23" data-name="Path 23" d="M71.005-139.113v-4.447c0-1.173-.167-2.106-1.579-2.106-1.675,0-1.878,1.46-1.878,2.788v3.766H66.259v-7.534h1.289v.912a2.558,2.558,0,0,1,2.183-1.09,2.587,2.587,0,0,1,2.145,1.033,3.484,3.484,0,0,1,.43,2v4.677h-1.3" transform="translate(6.493 151.416)" fill="#d60024"/>
  </g>
  <g id="Group_3" data-name="Group 3" transform="translate(0 13.571)">
    <path id="Path_24" data-name="Path 24" d="M0-187.183a9.763,9.763,0,0,1,1.723-.128,2.8,2.8,0,0,1,1.824.5,1.745,1.745,0,0,1,.6,1.366,1.865,1.865,0,0,1-.53,1.4,2.722,2.722,0,0,1-1.953.659,3.154,3.154,0,0,1-.551-.035v2.329H0ZM1.117-184.3a2.294,2.294,0,0,0,.551.045c.844,0,1.358-.412,1.358-1.136,0-.687-.477-1.055-1.258-1.055a3.188,3.188,0,0,0-.651.055Z" transform="translate(0 187.311)" fill="#d60024"/>
    <path id="Path_25" data-name="Path 25" d="M4.071-184.413c0-.6-.009-1.035-.035-1.438h.981l.037.851h.035a1.334,1.334,0,0,1,1.22-.952,1.167,1.167,0,0,1,.265.028v1.064a1.531,1.531,0,0,0-.328-.038,1,1,0,0,0-1.009.854,1.916,1.916,0,0,0-.037.348v2.31H4.071Z" transform="translate(0.892 187.611)" fill="#d60024"/>
  </g>
  <path id="Path_26" data-name="Path 26" d="M162.323-182.39l-1.456-2.1h-.145v2.1h-.778v-5.13h.909a2.669,2.669,0,0,1,1.358.307,1.387,1.387,0,0,1,.6,1.206,1.492,1.492,0,0,1-1.128,1.435l1.584,2.182h-.946M161-186.784h-.275v1.618h.252c.549,0,1.088-.2,1.088-.835S161.523-186.784,161-186.784Z" transform="translate(35.365 200.836)" fill="#d60024"/>
  <path id="Path_27" data-name="Path 27" d="M157.771-184.739a3.979,3.979,0,0,0,3.97,3.982,3.98,3.98,0,0,0,3.981-3.982,3.977,3.977,0,0,0-3.981-3.97,3.975,3.975,0,0,0-3.97,3.97m.6,0a3.373,3.373,0,0,1,3.371-3.374,3.383,3.383,0,0,1,3.384,3.374,3.386,3.386,0,0,1-3.384,3.382A3.377,3.377,0,0,1,158.369-184.739Z" transform="translate(34.884 200.573)" fill="#d60024"/>
</svg>
