<svg xmlns="http://www.w3.org/2000/svg" width="200.11" height="23.345" viewBox="0 0 200.11 23.345">
  <path id="Path_55" data-name="Path 55" d="M36.694,48.021a20.827,20.827,0,0,1-8.872-2.375l2.733-6.2c1.676,1.209,3.317,2.384,5.494,2.384.588,0,1.758-.121,1.758-1.035,0-.936-.874-1.135-2.027-1.489-2.582-.761-6.695-1.5-6.695-6.963,0-5.556,4.264-7.632,9.22-7.632a13.561,13.561,0,0,1,7.374,2.261l-2.442,5.583A7.223,7.223,0,0,0,39.1,30.784c-1.24,0-2,.357-2,1.124,0,.788,1.232,1.081,1.969,1.317,2.579.788,6.808,1.653,6.808,7.106,0,5.578-4.139,7.691-9.189,7.691m24.223-.645-.64-2.792h-5.96l-.8,2.792H45.233l7.7-22.055H61.92l7.337,22.055ZM57.276,32.464,55.363,39.37h3.822ZM84.2,47.377,77.57,36.64V47.377H69.934V25.321H77.57L84.2,36.138V25.321h7.583V47.377Zm18.684-.061-2.531.061H94.279V25.321h5.786l2.52.035c7.168,0,12.66,2.584,12.66,11.064,0,8.022-5.168,10.9-12.361,10.9m.234-15.385h-.912V40.8h.912c2.731,0,4.165-1.375,4.165-4.282,0-2.7-1.377-4.583-4.165-4.583m24.93,16.09c-6.784,0-11.944-4.63-11.944-11.651,0-6.874,5.011-11.695,11.911-11.695s12.221,4.7,12.221,11.695-4.5,11.651-12.189,11.651m.087-16c-2.494,0-4.022,1.792-4.022,4.322,0,2.611,1.556,4.349,4.022,4.349,2.49,0,4.086-1.739,4.086-4.349a3.972,3.972,0,0,0-4.086-4.322m24.017,8.756h8.2v6.6H139.2l9.461-15.445h-7.437v-6.61h20.2Zm19.921-8.629H168.4l-.953,2.722h-1.317l3.412-9.334h1.43l3.436,9.334H173Zm-3.324-1h2.985l-.89-2.61c-.313-.9-.564-1.982-.564-1.982h-.038s-.276,1.117-.577,1.982Zm10.7-5.608h1.341l3.827,5.846c.452.691,1.041,1.857,1.041,1.857h.038s-.089-1.217-.089-1.995V25.535h1.2v9.334h-1.329l-3.814-5.845c-.452-.7-1.066-1.845-1.066-1.845h-.026s.075,1.217.075,1.969v5.721h-1.2Zm9.02,5.972a3.3,3.3,0,1,1,6.573,0,3.3,3.3,0,1,1-6.573,0Zm5.381,0c0-1.456-.715-2.61-2.095-2.61s-2.095,1.154-2.095,2.61.715,2.6,2.095,2.6S193.848,32.963,193.848,31.508Zm1.819-3.375h1.242l1.179,3.638c.289.9.614,2.146.614,2.146h.026s.288-1.243.589-2.146l1.2-3.638h1.2l-2.42,6.737h-1.292Zm6.711,4.955c0-1.568,1.153-1.907,2.9-2.121.991-.112,1.631-.276,1.631-.965,0-.728-.515-1.179-1.443-1.179-1.066,0-1.58.5-1.618,1.3h-1.129c.051-1.142.916-2.158,2.735-2.158a3.23,3.23,0,0,1,1.631.365,1.964,1.964,0,0,1,.9,1.831v3.149c0,.54.125.829.715.7h.051v.815a1.938,1.938,0,0,1-.627.1,1.085,1.085,0,0,1-1.193-1.054h-.012a2.641,2.641,0,0,1-2.258,1.129C203.381,35.008,202.378,34.381,202.378,33.088Zm4.541-.7v-1.1a4.668,4.668,0,0,1-1.48.477c-1.105.187-1.832.388-1.832,1.317,0,.866.665,1.079,1.342,1.079A1.839,1.839,0,0,0,206.919,32.385Zm3.035,2.485V28.133h1.154V29.35h.038a2.247,2.247,0,0,1,1.995-1.3,1.031,1.031,0,0,1,.426.075v1.1h-.037a1.43,1.43,0,0,0-.477-.063,1.923,1.923,0,0,0-1.931,2.046v3.663Zm7.175.05c-.9-.012-1.53-.376-1.53-1.367V29.036h-1.054v-.9H215.6v-2.12h1.153v2.12h1.393v.9h-1.393v4.252c0,.489.264.628.691.628a2.549,2.549,0,0,0,.59-.088h.037v.978A4.084,4.084,0,0,1,217.13,34.919Zm3.776-8.68a.715.715,0,1,1-.715-.715A.692.692,0,0,1,220.906,26.239Zm-1.292,1.894h1.166v6.737h-1.166Zm2.6,4.691h1.179c.138.979.89,1.306,1.857,1.306,1.066,0,1.518-.464,1.518-1.067,0-.741-.565-.928-1.757-1.167-1.317-.276-2.509-.551-2.509-2.032,0-1.154.9-1.882,2.471-1.882,1.694,0,2.534.79,2.684,1.957h-1.166c-.1-.69-.578-1.079-1.544-1.079-.916,0-1.3.426-1.3.94,0,.7.652.841,1.793,1.067,1.341.264,2.5.565,2.5,2.133,0,1.366-1.131,2.07-2.71,2.07C223.365,35.071,222.31,34.192,222.211,32.824Zm-55.358,5.255h3.45c2.785,0,4.165,1.908,4.165,4.705s-1.456,4.629-4.252,4.629h-3.363Zm3.312,8.217c2.107,0,2.973-1.368,2.973-3.512s-.777-3.588-2.9-3.588h-2.1v7.1Zm7.251-7.514a.715.715,0,1,1-.714-.715A.692.692,0,0,1,177.415,38.782Zm-1.293,1.894h1.167v6.737h-1.167Zm2.284,0h1.241l1.18,3.638c.288.9.614,2.146.614,2.146h.026s.288-1.243.589-2.146l1.2-3.638h1.2l-2.421,6.737h-1.292Zm8.468-1.894a.715.715,0,1,1-.715-.715A.692.692,0,0,1,186.873,38.782Zm-1.292,1.894h1.166v6.737h-1.166Zm2.6,4.691h1.179c.138.98.892,1.306,1.856,1.306,1.068,0,1.52-.464,1.52-1.066,0-.741-.565-.929-1.757-1.167-1.317-.276-2.509-.552-2.509-2.033,0-1.154.9-1.881,2.471-1.881,1.694,0,2.534.79,2.685,1.958h-1.167c-.1-.691-.576-1.08-1.543-1.08-.915,0-1.3.426-1.3.941,0,.7.652.841,1.794,1.067,1.342.263,2.5.564,2.5,2.132,0,1.367-1.128,2.069-2.709,2.069C189.332,47.614,188.278,46.737,188.178,45.368Zm8.517-6.586a.715.715,0,1,1-.715-.715A.692.692,0,0,1,196.7,38.782ZM195.4,40.677h1.166v6.737H195.4Zm2.66,3.376a3.3,3.3,0,1,1,6.573,0,3.3,3.3,0,1,1-6.573,0Zm5.381,0c0-1.456-.715-2.611-2.095-2.611s-2.1,1.155-2.1,2.611.715,2.6,2.1,2.6S203.444,45.507,203.444,44.052Zm3.851,3.362h-1.166V40.677h1.154v.954h.037a2.49,2.49,0,0,1,2.133-1.117,2.047,2.047,0,0,1,2.271,2.2v4.705h-1.156V42.848a1.3,1.3,0,0,0-1.48-1.355,1.733,1.733,0,0,0-1.794,1.819Z" transform="translate(-27.822 -24.676)" fill="#00509c"/>
</svg>
