<svg id="Group_91" data-name="Group 91" xmlns="http://www.w3.org/2000/svg" xmlns:xlink="http://www.w3.org/1999/xlink" width="127.986" height="42.782" viewBox="0 0 127.986 42.782">
  <defs>
    <clipPath id="clip-path">
      <rect id="Rectangle_19" data-name="Rectangle 19" width="127.986" height="42.782" fill="none"/>
    </clipPath>
  </defs>
  <g id="Group_20" data-name="Group 20" transform="translate(0)" clip-path="url(#clip-path)">
    <path id="Path_56" data-name="Path 56" d="M117.793,0H10.2c-.393,0-.78,0-1.171,0C8.7,0,8.375.011,8.044.016A14.082,14.082,0,0,0,5.9.2,7.187,7.187,0,0,0,3.867.875,6.892,6.892,0,0,0,2.137,2.136,6.722,6.722,0,0,0,.876,3.87,7.086,7.086,0,0,0,.207,5.9,13.976,13.976,0,0,0,.016,8.046C.006,8.375.005,8.7,0,9.031V33.754c.005.332.006.653.016.985A13.963,13.963,0,0,0,.207,36.88a7.067,7.067,0,0,0,.668,2.037,6.666,6.666,0,0,0,1.261,1.726A6.738,6.738,0,0,0,3.867,41.9a7.194,7.194,0,0,0,2.033.674,14.222,14.222,0,0,0,2.143.189c.33.007.656.012.983.012.391,0,.779,0,1.171,0h107.6c.386,0,.775,0,1.159,0,.327,0,.661,0,.987-.012a14.021,14.021,0,0,0,2.139-.189,7.3,7.3,0,0,0,2.041-.674,6.775,6.775,0,0,0,1.731-1.261,6.874,6.874,0,0,0,1.262-1.726,7.022,7.022,0,0,0,.662-2.037,14.538,14.538,0,0,0,.2-2.141c0-.332,0-.653,0-.985.009-.389.009-.775.009-1.17V10.2c0-.391,0-.78-.009-1.168,0-.327,0-.657,0-.985a14.551,14.551,0,0,0-.2-2.141,7.04,7.04,0,0,0-.662-2.035A6.9,6.9,0,0,0,124.12.875,7.291,7.291,0,0,0,122.079.2,13.885,13.885,0,0,0,119.94.016c-.326-.005-.66-.012-.987-.014-.384,0-.773,0-1.159,0" fill="#a2a4a7"/>
    <path id="Path_57" data-name="Path 57" d="M8.972,41.785c-.326,0-.644,0-.967-.012a13.5,13.5,0,0,1-2-.174,6.268,6.268,0,0,1-1.772-.586,5.765,5.765,0,0,1-1.494-1.087,5.7,5.7,0,0,1-1.092-1.494,6.152,6.152,0,0,1-.581-1.772,13.249,13.249,0,0,1-.178-2.005c-.007-.226-.016-.976-.016-.976V8.97s.01-.739.016-.956a13.209,13.209,0,0,1,.176-2,6.156,6.156,0,0,1,.582-1.778,5.709,5.709,0,0,1,1.086-1.5,5.974,5.974,0,0,1,1.5-1.094A6.219,6.219,0,0,1,6,1.063,13.517,13.517,0,0,1,8.007.888L8.972.875H118.887l.976.014a13.232,13.232,0,0,1,1.988.173,6.378,6.378,0,0,1,1.787.586,6,6,0,0,1,2.583,2.588A6.2,6.2,0,0,1,126.795,6a14.158,14.158,0,0,1,.185,2.018c0,.3,0,.629,0,.952.01.4.01.783.01,1.168V32.523c0,.388,0,.768-.01,1.15,0,.348,0,.666,0,.995a13.725,13.725,0,0,1-.183,1.982,6.151,6.151,0,0,1-.578,1.786,6.019,6.019,0,0,1-2.582,2.575,6.267,6.267,0,0,1-1.785.588,13.326,13.326,0,0,1-2,.174c-.312.007-.642.012-.96.012l-1.159,0Z" transform="translate(0.061 0.061)"/>
    <path id="Path_58" data-name="Path 58" d="M25.8,20.741a5.294,5.294,0,0,1,2.52-4.441,5.416,5.416,0,0,0-4.269-2.308c-1.8-.188-3.537,1.075-4.453,1.075-.933,0-2.341-1.056-3.859-1.025a5.683,5.683,0,0,0-4.784,2.918C8.885,20.541,10.428,25.8,12.41,28.7c.991,1.419,2.15,3,3.666,2.946,1.483-.061,2.037-.945,3.828-.945,1.774,0,2.294.945,3.841.91,1.591-.026,2.595-1.425,3.551-2.856a11.689,11.689,0,0,0,1.625-3.307,5.114,5.114,0,0,1-3.122-4.7" transform="translate(0.693 0.972)" fill="#fff"/>
    <path id="Path_59" data-name="Path 59" d="M22.264,12.454A5.213,5.213,0,0,0,23.456,8.72,5.307,5.307,0,0,0,20.025,10.5,4.957,4.957,0,0,0,18.8,14.09a4.382,4.382,0,0,0,3.462-1.636" transform="translate(1.306 0.606)" fill="#fff"/>
    <path id="Path_60" data-name="Path 60" d="M42.85,27.77H37.788L36.571,31.36H34.427l4.8-13.282h2.228L46.245,31.36H44.065Zm-4.538-1.657h4.013l-1.979-5.826h-.055Z" transform="translate(2.394 1.257)" fill="#fff"/>
    <path id="Path_61" data-name="Path 61" d="M55.753,26.291c0,3.01-1.612,4.942-4.041,4.942a3.283,3.283,0,0,1-3.048-1.694h-.046v4.8H46.632V21.45h1.924V23.06h.036a3.431,3.431,0,0,1,3.082-1.712c2.459,0,4.078,1.942,4.078,4.943m-2.043,0c0-1.96-1.014-3.249-2.56-3.249-1.517,0-2.54,1.316-2.54,3.249,0,1.951,1.024,3.258,2.54,3.258,1.547,0,2.56-1.279,2.56-3.258" transform="translate(3.243 1.485)" fill="#fff"/>
    <path id="Path_62" data-name="Path 62" d="M65.717,26.291c0,3.01-1.611,4.942-4.041,4.942a3.283,3.283,0,0,1-3.047-1.694h-.046v4.8H56.6V21.45H58.52V23.06h.036a3.434,3.434,0,0,1,3.083-1.712c2.458,0,4.077,1.942,4.077,4.943m-2.043,0c0-1.96-1.013-3.249-2.559-3.249-1.518,0-2.54,1.316-2.54,3.249,0,1.951,1.022,3.258,2.54,3.258,1.547,0,2.559-1.279,2.559-3.258" transform="translate(3.936 1.485)" fill="#fff"/>
    <path id="Path_63" data-name="Path 63" d="M71.843,27.673c.147,1.317,1.427,2.182,3.174,2.182,1.675,0,2.88-.865,2.88-2.052,0-1.031-.727-1.648-2.448-2.071l-1.72-.415c-2.441-.589-3.572-1.729-3.572-3.581,0-2.291,2-3.865,4.832-3.865,2.806,0,4.731,1.574,4.8,3.865H77.779c-.121-1.325-1.216-2.125-2.816-2.125s-2.7.81-2.7,1.987c0,.939.7,1.492,2.412,1.914l1.464.359C78.865,24.517,80,25.611,80,27.555c0,2.485-1.981,4.041-5.128,4.041-2.946,0-4.934-1.52-5.061-3.922Z" transform="translate(4.855 1.243)" fill="#fff"/>
    <path id="Path_64" data-name="Path 64" d="M83.567,19.3v2.292h1.842v1.573H83.567V28.5c0,.83.369,1.216,1.179,1.216a6.1,6.1,0,0,0,.653-.046v1.565a5.436,5.436,0,0,1-1.1.092c-1.96,0-2.725-.736-2.725-2.614V23.165H80.162V21.592h1.409V19.3Z" transform="translate(5.575 1.342)" fill="#fff"/>
    <path id="Path_65" data-name="Path 65" d="M86.065,26.293c0-3.047,1.794-4.962,4.593-4.962s4.593,1.914,4.593,4.962-1.777,4.962-4.593,4.962-4.593-1.907-4.593-4.962m7.161,0c0-2.09-.957-3.323-2.568-3.323s-2.568,1.243-2.568,3.323c0,2.1.957,3.323,2.568,3.323s2.568-1.225,2.568-3.323" transform="translate(5.985 1.483)" fill="#fff"/>
    <path id="Path_66" data-name="Path 66" d="M96.186,21.449h1.9V23.1h.046a2.312,2.312,0,0,1,2.329-1.75,3.011,3.011,0,0,1,.681.075v1.859a2.771,2.771,0,0,0-.893-.12,2,2,0,0,0-2.072,2.228v5.743H96.186Z" transform="translate(6.689 1.485)" fill="#fff"/>
    <path id="Path_67" data-name="Path 67" d="M109.952,28.289c-.267,1.758-1.979,2.965-4.169,2.965-2.817,0-4.566-1.888-4.566-4.916s1.758-5.008,4.482-5.008c2.679,0,4.364,1.841,4.364,4.777v.681h-6.84v.12a2.523,2.523,0,0,0,2.605,2.743,2.192,2.192,0,0,0,2.236-1.363Zm-6.719-2.89h4.841a2.328,2.328,0,0,0-2.374-2.458,2.452,2.452,0,0,0-2.466,2.458" transform="translate(7.039 1.483)" fill="#fff"/>
    <path id="Path_68" data-name="Path 68" d="M37.976,8.731c1.893,0,3,1.163,3,3.171,0,2.039-1.1,3.211-3,3.211h-2.3V8.731ZM36.662,14.21h1.2a2.006,2.006,0,0,0,2.1-2.3,2.012,2.012,0,0,0-2.1-2.282h-1.2Z" transform="translate(2.481 0.607)" fill="#fff"/>
    <path id="Path_69" data-name="Path 69" d="M41.681,12.606a2.282,2.282,0,1,1,4.542,0,2.282,2.282,0,1,1-4.542,0m3.565,0c0-1.044-.47-1.655-1.292-1.655s-1.291.611-1.291,1.655.464,1.658,1.291,1.658,1.292-.61,1.292-1.658" transform="translate(2.899 0.703)" fill="#fff"/>
    <path id="Path_70" data-name="Path 70" d="M51.921,15.011h-.986l-1-3.547h-.075l-.991,3.547H47.9l-1.327-4.816h.964L48.4,13.87h.072l.989-3.675h.912l.99,3.675h.075l.859-3.675h.95Z" transform="translate(3.239 0.709)" fill="#fff"/>
    <path id="Path_71" data-name="Path 71" d="M53.854,10.2h.913v.765h.072a1.443,1.443,0,0,1,1.437-.858A1.566,1.566,0,0,1,57.943,11.9v3.118h-.95V12.138c0-.774-.337-1.158-1.04-1.158A1.1,1.1,0,0,0,54.8,12.2v2.817h-.951Z" transform="translate(3.745 0.703)" fill="#fff"/>
    <rect id="Rectangle_18" data-name="Rectangle 18" width="0.951" height="6.696" transform="translate(63.204 9.024)" fill="#fff"/>
    <path id="Path_72" data-name="Path 72" d="M61.218,12.606a2.282,2.282,0,1,1,4.543,0,2.282,2.282,0,1,1-4.543,0m3.565,0c0-1.044-.47-1.655-1.292-1.655s-1.291.611-1.291,1.655.465,1.658,1.291,1.658,1.292-.61,1.292-1.658" transform="translate(4.257 0.703)" fill="#fff"/>
    <path id="Path_73" data-name="Path 73" d="M66.4,13.656c0-.867.646-1.367,1.791-1.439l1.3-.075v-.415c0-.509-.336-.8-.986-.8-.53,0-.9.2-1,.536h-.921c.1-.828.876-1.358,1.968-1.358,1.208,0,1.889.6,1.889,1.619v3.29h-.916V14.34h-.075a1.62,1.62,0,0,1-1.447.756A1.454,1.454,0,0,1,66.4,13.656m3.1-.412v-.4l-1.176.075c-.663.044-.964.27-.964.694s.376.686.893.686A1.135,1.135,0,0,0,69.5,13.244" transform="translate(4.618 0.703)" fill="#fff"/>
    <path id="Path_74" data-name="Path 74" d="M71.348,12.723c0-1.522.782-2.486,2-2.486a1.587,1.587,0,0,1,1.477.845h.071V8.437h.951v6.7h-.91v-.762h-.076a1.672,1.672,0,0,1-1.512.841c-1.225,0-2-.965-2-2.49m.982,0c0,1.021.481,1.636,1.287,1.636s1.3-.624,1.3-1.632-.5-1.636-1.3-1.636-1.287.619-1.287,1.632" transform="translate(4.962 0.587)" fill="#fff"/>
    <path id="Path_75" data-name="Path 75" d="M79.23,12.606a2.282,2.282,0,1,1,4.542,0,2.282,2.282,0,1,1-4.542,0m3.565,0c0-1.044-.468-1.655-1.292-1.655s-1.291.611-1.291,1.655.464,1.658,1.291,1.658,1.292-.61,1.292-1.658" transform="translate(5.51 0.703)" fill="#fff"/>
    <path id="Path_76" data-name="Path 76" d="M84.67,10.2h.913v.765h.072a1.444,1.444,0,0,1,1.439-.858A1.566,1.566,0,0,1,88.759,11.9v3.118h-.95V12.138c0-.774-.337-1.158-1.04-1.158a1.1,1.1,0,0,0-1.149,1.22v2.817H84.67Z" transform="translate(5.888 0.703)" fill="#fff"/>
    <path id="Path_77" data-name="Path 77" d="M93.627,9.074V10.3H94.67v.8H93.627v2.477c0,.5.207.725.681.725a3.234,3.234,0,0,0,.363-.022v.791a3.061,3.061,0,0,1-.518.049c-1.057,0-1.478-.372-1.478-1.3V11.1H91.91v-.8h.765V9.074Z" transform="translate(6.392 0.631)" fill="#fff"/>
    <path id="Path_78" data-name="Path 78" d="M95.7,8.437h.942v2.655h.075a1.482,1.482,0,0,1,1.468-.863,1.587,1.587,0,0,1,1.659,1.8v3.109H98.9V12.258c0-.769-.358-1.159-1.03-1.159a1.125,1.125,0,0,0-1.212,1.221v2.813H95.7Z" transform="translate(6.656 0.587)" fill="#fff"/>
    <path id="Path_79" data-name="Path 79" d="M105.041,13.717a1.955,1.955,0,0,1-2.087,1.394,2.188,2.188,0,0,1-2.225-2.486,2.222,2.222,0,0,1,2.22-2.517c1.34,0,2.149.916,2.149,2.428v.332h-3.4v.053a1.273,1.273,0,0,0,1.282,1.38,1.154,1.154,0,0,0,1.147-.584ZM101.7,12.165h2.433a1.163,1.163,0,0,0-1.186-1.248,1.233,1.233,0,0,0-1.247,1.248" transform="translate(7.005 0.703)" fill="#fff"/>
  </g>
</svg>
