<svg xmlns="http://www.w3.org/2000/svg" width="102" height="102" viewBox="0 0 102 102">
  <g id="Group_5707" data-name="Group 5707" transform="translate(0.089 -0.047)">
    <circle id="Ellipse_21" data-name="Ellipse 21" cx="51" cy="51" r="51" transform="translate(-0.089 0.047)" fill="rgba(255,255,255,0.9)"/>
    <g id="Polygon_9" data-name="Polygon 9" transform="translate(76.483 28.579) rotate(90)" fill="#707070">
      <path d="M 41.24712753295898 39.30283737182617 L 3.415367364883423 39.30283737182617 C 2.876937389373779 39.30283737182617 2.393047332763672 39.02544784545898 2.120967388153076 38.56082916259766 C 1.848887324333191 38.09619903564453 1.843737363815308 37.53846740722656 2.107187271118164 37.06888961791992 L 21.02306747436523 3.353538990020752 C 21.29218673706055 2.87385892868042 21.78122711181641 2.587489128112793 22.33124732971191 2.587489128112793 C 22.88125801086426 2.587489128112793 23.37029647827148 2.87385892868042 23.63941764831543 3.353538990020752 L 42.55530548095703 37.06888961791992 C 42.81875610351562 37.53845977783203 42.81360626220703 38.09619903564453 42.54152679443359 38.56081771850586 C 42.26944732666016 39.02544784545898 41.78555679321289 39.30283737182617 41.24712753295898 39.30283737182617 Z" stroke="none"/>
      <path d="M 22.33124732971191 3.087490081787109 C 22.15517807006836 3.087490081787109 21.71772766113281 3.137248992919922 21.45912742614746 3.598190307617188 L 2.543247222900391 37.31353759765625 C 2.290088653564453 37.7647705078125 2.465328216552734 38.15942764282227 2.55242919921875 38.30815887451172 C 2.6395263671875 38.4568977355957 2.897968292236328 38.80283737182617 3.415367126464844 38.80283737182617 L 41.24712753295898 38.80283737182617 C 41.76451873779297 38.80283737182617 42.02295684814453 38.4568977355957 42.11005783081055 38.30815887451172 C 42.19715881347656 38.15942764282227 42.37240600585938 37.7647705078125 42.11924743652344 37.31353759765625 L 23.2033576965332 3.598190307617188 C 22.94475746154785 3.137248992919922 22.50731658935547 3.087490081787109 22.33124732971191 3.087490081787109 M 22.33124542236328 2.087486267089844 C 23.01234436035156 2.087486267089844 23.69344139099121 2.427955627441406 24.07547760009766 3.108890533447266 L 42.99136734008789 36.82423782348633 C 43.73933792114258 38.15742874145508 42.77579879760742 39.80283737182617 41.24712753295898 39.80283737182617 L 3.415367126464844 39.80283737182617 C 1.886688232421875 39.80283737182617 0.9231491088867188 38.15742874145508 1.671127319335938 36.82423782348633 L 20.58700752258301 3.108890533447266 C 20.96904754638672 2.427955627441406 21.650146484375 2.087486267089844 22.33124542236328 2.087486267089844 Z" stroke="none" fill="#707070"/>
    </g>
  </g>
</svg>
