<svg xmlns="http://www.w3.org/2000/svg" xmlns:xlink="http://www.w3.org/1999/xlink" width="28.047" height="28.047" viewBox="0 0 28.047 28.047">
  <defs>
    <clipPath id="clip-path">
      <rect id="Rectangle_61" data-name="Rectangle 61" width="28.047" height="28.047" fill="none"/>
    </clipPath>
  </defs>
  <g id="Group_5724" data-name="Group 5724" transform="translate(0 0)">
    <g id="Group_5723" data-name="Group 5723" transform="translate(0 0)" clip-path="url(#clip-path)">
      <path id="Path_769" data-name="Path 769" d="M40.23,21.326a.779.779,0,0,1-.779-.779,6.386,6.386,0,0,0-6.379-6.38.779.779,0,1,1,0-1.558,7.946,7.946,0,0,1,7.936,7.937.779.779,0,0,1-.779.779" transform="translate(-18.39 -7.181)" fill="#fff"/>
      <path id="Path_770" data-name="Path 770" d="M44.975,15.053a.779.779,0,0,1-.779-.779A11.132,11.132,0,0,0,33.076,3.155a.779.779,0,0,1,0-1.557A12.691,12.691,0,0,1,45.754,14.274a.779.779,0,0,1-.779.779" transform="translate(-18.392 -0.91)" fill="#fff"/>
      <path id="Path_771" data-name="Path 771" d="M20.794,28.047a13.331,13.331,0,0,1-3.444-.489A24.254,24.254,0,0,1,6.9,21.149,24.258,24.258,0,0,1,.488,10.7c-1-3.715-.456-6.852,1.526-8.833l.028-.028A9.29,9.29,0,0,1,6.054.031,1.731,1.731,0,0,1,7.963,1.044L10.628,7.71a2.046,2.046,0,0,1-.456,2.09L8.239,11.733a.418.418,0,0,0-.109.451l.049.088a19.339,19.339,0,0,0,3.293,4.3,19.312,19.312,0,0,0,4.306,3.293l.113.062a.42.42,0,0,0,.426-.124l1.929-1.93a2.045,2.045,0,0,1,2.089-.455L27,20.084a1.735,1.735,0,0,1,1.013,1.91,9.223,9.223,0,0,1-1.832,4.038,7.385,7.385,0,0,1-5.389,2.015M3.091,2.989c-1.551,1.573-1.942,4.165-1.1,7.3A22.7,22.7,0,0,0,8,20.048a22.693,22.693,0,0,0,9.755,6.007c3.153.847,5.756.449,7.327-1.123a7.755,7.755,0,0,0,1.406-3.244.2.2,0,0,0-.067-.159l-6.665-2.663a.53.53,0,0,0-.409.111l-1.93,1.931a1.975,1.975,0,0,1-2.192.43l-.167-.086-.046-.027a20.888,20.888,0,0,1-4.641-3.548,20.891,20.891,0,0,1-3.559-4.66.707.707,0,0,1-.037-.068c-.007-.011-.03-.054-.052-.1a1.985,1.985,0,0,1,.414-2.218L9.073,8.7a.515.515,0,0,0,.109-.411L6.517,1.623a.2.2,0,0,0-.158-.064A7.792,7.792,0,0,0,3.116,2.964Z" transform="translate(0 0)" fill="#fff"/>
    </g>
  </g>
</svg>
